<mxfile host="65bd71144e">
    <diagram id="BP0s1PqeJ8omsrFhGxX3" name="Page-1">
        <mxGraphModel dx="1168" dy="560" grid="1" gridSize="10" guides="1" tooltips="1" connect="1" arrows="1" fold="1" page="1" pageScale="1" pageWidth="850" pageHeight="1100" background="#FCFCFC" math="0" shadow="0">
            <root>
                <mxCell id="0"/>
                <mxCell id="1" parent="0"/>
                <mxCell id="48" style="edgeStyle=none;html=1;entryX=1;entryY=0;entryDx=0;entryDy=0;fontSize=22;fontColor=#000000;strokeColor=#2D7600;strokeWidth=2;exitX=0;exitY=1;exitDx=0;exitDy=0;fillColor=#60a917;" edge="1" parent="1" source="44" target="45">
                    <mxGeometry relative="1" as="geometry"/>
                </mxCell>
                <mxCell id="49" style="edgeStyle=none;html=1;exitX=1;exitY=1;exitDx=0;exitDy=0;entryX=0;entryY=0;entryDx=0;entryDy=0;strokeColor=#2D7600;strokeWidth=2;fontSize=22;fontColor=#000000;fillColor=#60a917;" edge="1" parent="1" source="44" target="46">
                    <mxGeometry relative="1" as="geometry"/>
                </mxCell>
                <mxCell id="44" value="&lt;font color=&quot;#000000&quot; style=&quot;font-size: 22px;&quot;&gt;A&lt;/font&gt;" style="ellipse;whiteSpace=wrap;html=1;aspect=fixed;labelBackgroundColor=#FFE6CC;labelBorderColor=none;fillColor=#FFE6CC;strokeColor=#E7C000;strokeWidth=2;fontSize=22;fontStyle=1" vertex="1" parent="1">
                    <mxGeometry x="260" y="100" width="40" height="40" as="geometry"/>
                </mxCell>
                <mxCell id="51" style="edgeStyle=none;html=1;exitX=0;exitY=1;exitDx=0;exitDy=0;entryX=1;entryY=0;entryDx=0;entryDy=0;strokeColor=#2D7600;strokeWidth=2;fontSize=22;fontColor=#000000;fillColor=#60a917;" edge="1" parent="1" source="45" target="47">
                    <mxGeometry relative="1" as="geometry"/>
                </mxCell>
                <mxCell id="54" style="edgeStyle=none;html=1;exitX=1;exitY=1;exitDx=0;exitDy=0;entryX=0;entryY=0;entryDx=0;entryDy=0;strokeColor=#2D7600;strokeWidth=2;fontSize=22;fontColor=#000000;fillColor=#60a917;" edge="1" parent="1" source="45" target="52">
                    <mxGeometry relative="1" as="geometry"/>
                </mxCell>
                <mxCell id="45" value="&lt;font color=&quot;#000000&quot; style=&quot;font-size: 22px;&quot;&gt;B&lt;/font&gt;" style="ellipse;whiteSpace=wrap;html=1;aspect=fixed;labelBackgroundColor=#FFE6CC;labelBorderColor=none;fillColor=#FFE6CC;strokeColor=#E7C000;strokeWidth=2;fontSize=22;fontStyle=1;" vertex="1" parent="1">
                    <mxGeometry x="180" y="180" width="40" height="40" as="geometry"/>
                </mxCell>
                <mxCell id="57" style="edgeStyle=none;html=1;exitX=1;exitY=1;exitDx=0;exitDy=0;entryX=0;entryY=0;entryDx=0;entryDy=0;strokeColor=#2D7600;strokeWidth=2;fontSize=22;fontColor=#000000;fillColor=#60a917;" edge="1" parent="1" source="46" target="55">
                    <mxGeometry relative="1" as="geometry"/>
                </mxCell>
                <mxCell id="46" value="&lt;font color=&quot;#000000&quot; style=&quot;font-size: 22px;&quot;&gt;C&lt;/font&gt;" style="ellipse;whiteSpace=wrap;html=1;aspect=fixed;labelBackgroundColor=#FFE6CC;labelBorderColor=none;fillColor=#FFE6CC;strokeColor=#E7C000;strokeWidth=2;fontSize=22;fontStyle=1;" vertex="1" parent="1">
                    <mxGeometry x="340" y="180" width="40" height="40" as="geometry"/>
                </mxCell>
                <mxCell id="60" style="edgeStyle=none;html=1;exitX=0;exitY=1;exitDx=0;exitDy=0;entryX=1;entryY=0;entryDx=0;entryDy=0;strokeColor=#2D7600;strokeWidth=2;fontSize=22;fontColor=#000000;fillColor=#60a917;" edge="1" parent="1" source="47" target="58">
                    <mxGeometry relative="1" as="geometry"/>
                </mxCell>
                <mxCell id="62" style="edgeStyle=none;html=1;exitX=1;exitY=1;exitDx=0;exitDy=0;entryX=0;entryY=0;entryDx=0;entryDy=0;strokeColor=#2D7600;strokeWidth=2;fontSize=22;fontColor=#000000;fillColor=#60a917;" edge="1" parent="1" source="47" target="61">
                    <mxGeometry relative="1" as="geometry"/>
                </mxCell>
                <mxCell id="47" value="&lt;font color=&quot;#000000&quot; style=&quot;font-size: 22px;&quot;&gt;D&lt;/font&gt;" style="ellipse;whiteSpace=wrap;html=1;aspect=fixed;labelBackgroundColor=#FFE6CC;labelBorderColor=none;fillColor=#FFE6CC;strokeColor=#E7C000;strokeWidth=2;fontSize=22;fontStyle=1;" vertex="1" parent="1">
                    <mxGeometry x="100" y="260" width="40" height="40" as="geometry"/>
                </mxCell>
                <mxCell id="52" value="&lt;font color=&quot;#000000&quot; style=&quot;font-size: 22px;&quot;&gt;E&lt;/font&gt;" style="ellipse;whiteSpace=wrap;html=1;aspect=fixed;labelBackgroundColor=#FFE6CC;labelBorderColor=none;fillColor=#FFE6CC;strokeColor=#E7C000;strokeWidth=2;fontSize=22;fontStyle=1;" vertex="1" parent="1">
                    <mxGeometry x="260" y="260" width="40" height="40" as="geometry"/>
                </mxCell>
                <mxCell id="64" style="edgeStyle=none;html=1;exitX=0;exitY=1;exitDx=0;exitDy=0;entryX=1;entryY=0;entryDx=0;entryDy=0;strokeColor=#2D7600;strokeWidth=2;fontSize=22;fontColor=#000000;fillColor=#60a917;" edge="1" parent="1" source="55" target="63">
                    <mxGeometry relative="1" as="geometry"/>
                </mxCell>
                <mxCell id="66" style="edgeStyle=none;html=1;exitX=1;exitY=1;exitDx=0;exitDy=0;entryX=0;entryY=0;entryDx=0;entryDy=0;strokeColor=#2D7600;strokeWidth=2;fontSize=22;fontColor=#000000;fillColor=#60a917;" edge="1" parent="1" source="55" target="65">
                    <mxGeometry relative="1" as="geometry"/>
                </mxCell>
                <mxCell id="55" value="&lt;font color=&quot;#000000&quot; style=&quot;font-size: 22px;&quot;&gt;F&lt;/font&gt;" style="ellipse;whiteSpace=wrap;html=1;aspect=fixed;labelBackgroundColor=#FFE6CC;labelBorderColor=none;fillColor=#FFE6CC;strokeColor=#E7C000;strokeWidth=2;fontSize=22;fontStyle=1;" vertex="1" parent="1">
                    <mxGeometry x="420" y="260" width="40" height="40" as="geometry"/>
                </mxCell>
                <mxCell id="58" value="&lt;font color=&quot;#000000&quot;&gt;G&lt;/font&gt;" style="ellipse;whiteSpace=wrap;html=1;aspect=fixed;labelBackgroundColor=#FFE6CC;labelBorderColor=none;fillColor=#FFE6CC;strokeColor=#E7C000;strokeWidth=2;fontSize=22;fontStyle=1;" vertex="1" parent="1">
                    <mxGeometry x="20" y="340" width="40" height="40" as="geometry"/>
                </mxCell>
                <mxCell id="61" value="&lt;font color=&quot;#000000&quot; style=&quot;font-size: 22px;&quot;&gt;H&lt;/font&gt;" style="ellipse;whiteSpace=wrap;html=1;aspect=fixed;labelBackgroundColor=#FFE6CC;labelBorderColor=none;fillColor=#FFE6CC;strokeColor=#E7C000;strokeWidth=2;fontSize=22;fontStyle=1;" vertex="1" parent="1">
                    <mxGeometry x="180" y="340" width="40" height="40" as="geometry"/>
                </mxCell>
                <mxCell id="63" value="&lt;font color=&quot;#000000&quot; style=&quot;font-size: 22px;&quot;&gt;I&lt;/font&gt;" style="ellipse;whiteSpace=wrap;html=1;aspect=fixed;labelBackgroundColor=#FFE6CC;labelBorderColor=none;fillColor=#FFE6CC;strokeColor=#E7C000;strokeWidth=2;fontSize=22;fontStyle=1;" vertex="1" parent="1">
                    <mxGeometry x="340" y="340" width="40" height="40" as="geometry"/>
                </mxCell>
                <mxCell id="65" value="&lt;font color=&quot;#000000&quot; style=&quot;font-size: 22px;&quot;&gt;J&lt;/font&gt;" style="ellipse;whiteSpace=wrap;html=1;aspect=fixed;labelBackgroundColor=#FFE6CC;labelBorderColor=none;fillColor=#FFE6CC;strokeColor=#E7C000;strokeWidth=2;fontSize=22;fontStyle=1;" vertex="1" parent="1">
                    <mxGeometry x="500" y="340" width="40" height="40" as="geometry"/>
                </mxCell>
            </root>
        </mxGraphModel>
    </diagram>
</mxfile>